HIERARCHY
ROOT HipCenter
{
    OFFSET 0.0 0.0 -0.0
    CHANNELS 6 Xposition Yposition Zposition Zrotation Xrotation Yrotation
    JOINT Spine
    {
        OFFSET 0.0 0.12093976885080338 0.0
        CHANNELS 3 Zrotation Xrotation Yrotation
        JOINT ShoulderCenter
        {
            OFFSET 0.0 0.33487603068351746 0.0
            CHANNELS 3 Zrotation Xrotation Yrotation
            JOINT LeftShoulder
            {
                OFFSET 0.1902620792388916 0.0 0.0
                CHANNELS 3 Zrotation Xrotation Yrotation
                JOINT LeftElbow
                {
                    OFFSET 0.29751893877983093 0.0 0.0
                    CHANNELS 3 Zrotation Xrotation Yrotation
                    JOINT LeftWrist
                    {
                        OFFSET 0.2960919141769409 0.0 0.0
                        CHANNELS 3 Zrotation Xrotation Yrotation
                        JOINT LeftHand
                        {
                            OFFSET 0.04403641074895859 0.0 0.0
                            CHANNELS 3 Zrotation Xrotation Yrotation
                            End Site
                            {
                                OFFSET 0.017614565789699554 0.0 0.0
                            }
                        }
                    }
                }
            }
            JOINT RightShoulder
            {
                OFFSET -0.1902620792388916 0.0 0.0
                CHANNELS 3 Zrotation Xrotation Yrotation
                JOINT RightElbow
                {
                    OFFSET -0.29751893877983093 0.0 0.0
                    CHANNELS 3 Zrotation Xrotation Yrotation
                    JOINT RightWrist
                    {
                        OFFSET -0.2960919141769409 0.0 0.0
                        CHANNELS 3 Zrotation Xrotation Yrotation
                        JOINT RightHand
                        {
                            OFFSET -0.04403641074895859 0.0 0.0
                            CHANNELS 3 Zrotation Xrotation Yrotation
                            End Site
                            {
                                OFFSET -0.017614565789699554 0.0 0.0
                            }
                        }
                    }
                }
            }
            End Site
            {
                OFFSET 0.0 0.1339503973722458 0.0
            }
        }
    }
    JOINT LeftHip
    {
        OFFSET 0.13975480198860168 0.0 0.0
        CHANNELS 3 Zrotation Xrotation Yrotation
        JOINT LeftKnee
        {
            OFFSET 0.0 -0.40647709369659424 0.0
            CHANNELS 3 Zrotation Xrotation Yrotation
            JOINT LeftAnkle
            {
                OFFSET 0.0 -0.44773364067077637 0.0
                CHANNELS 3 Zrotation Xrotation Yrotation
                JOINT LeftFoot
                {
                    OFFSET 0.0 -0.10067339241504669 0.0
                    CHANNELS 3 Zrotation Xrotation Yrotation
                    End Site
                    {
                        OFFSET 0.0 0.0 0.040269359946250916
                    }
                }
            }
        }
    }
    JOINT RightHip
    {
        OFFSET -0.13975480198860168 0.0 0.0
        CHANNELS 3 Zrotation Xrotation Yrotation
        JOINT RightKnee
        {
            OFFSET 0.0 -0.40647709369659424 0.0
            CHANNELS 3 Zrotation Xrotation Yrotation
            JOINT RightAnkle
            {
                OFFSET 0.0 -0.44773364067077637 0.0
                CHANNELS 3 Zrotation Xrotation Yrotation
                JOINT RightFoot
                {
                    OFFSET 0.0 -0.10067339241504669 0.0
                    CHANNELS 3 Zrotation Xrotation Yrotation
                    End Site
                    {
                        OFFSET 0.0 0.0 0.040269359946250916
                    }
                }
            }
        }
    }
}
MOTION
Frames: 10
Frame Time: 0.03333333333333333
0.6119999885559082 -0.032999999821186066 1.8960000276565552 4.253838144988993 3.3018264391939374 -175.72761214195677 0.17657846528474336 -7.754273357882625 -0.05462842383082969 -2.2894788241256388e-07 -5.95942125189294e-07 -5.0786084663535185 95.51339831719294 5.440402287396829 168.318296596204 3.0391734052415577e-06 1.2249309270596455e-06 9.03963503781477 1.8071464958701576e-07 -33.26984479990839 24.90661146489722 6.3611093629270335e-15 -6.3611093629270335e-15 3.1805546814635168e-15 -110.68463528646869 49.6397824214038 71.206310832866 1.7280752139805283e-06 -1.6193693236007925e-06 -22.061871254069832 -179.9999807479691 -76.43004078935402 135.00306379875752 -3.3793393490549868e-15 -6.3611093629270335e-15 -1.8759101766713175e-31 31.56746424676947 11.611475947976219 -85.14842562416594 5.253416127512549 -2.798584480675445 5.617095051924947 125.47516878600482 -32.094331043313616 -175.22406677775606 1.590277340731758e-15 0.0 0.0 -17.683153578584367 17.920277728159565 66.67517767429415 -3.321776248090612 -4.62195967621998 -5.986257368639704 -137.91290995399908 -20.22327479856744 176.46559012215846 1.5902773407317584e-15 0.0 0.0
0.6110000014305115 -0.03200000151991844 1.8940000534057617 3.310954943422001 3.7763010618641695 -175.9099740156083 1.3997398558977618 -7.012695823522578 0.4553790087743563 -1.2066910601341622e-08 -1.199832298126701e-06 -4.226479083980851 94.16664123075299 6.020213971590797 169.69972418043267 -6.123891619009037e-06 5.705350059818028e-07 9.13684328737456 -2.8425048797241803e-08 -28.843271843963578 19.41045548464013 -6.361109362927032e-15 6.361109362927032e-15 -3.9756933518293915e-16 -108.56768958361769 49.607408058958555 63.8204087307905 1.167965927577834e-06 5.0939482128090025e-06 -21.98710127906123 -179.9999697951918 -74.73000316945993 135.13098134520956 -1.9878466759146976e-15 -6.361109362927033e-15 -1.1034765745125397e-31 31.396414560194348 12.293939209770675 -90.08221257584852 5.784237514123508 -2.1131353940853024 4.304029071281212 120.98743615174726 -27.39922850999764 -177.7840839569897 7.951386703658792e-15 0.0 0.0 -18.226092029444594 17.623532490468705 63.74080926710172 -2.1927668640433744 -4.009737943401516 -4.941731648045265 -137.95091455468156 -21.65569559647119 176.72492978346068 -1.5902773407317584e-15 0.0 0.0
0.6050000190734863 -0.03200000151991844 1.8830000162124634 0.4774761198637135 6.654167176689778 -177.05740239219637 -0.627510161883887 -4.662094197942193 0.07443426189414307 -8.369708996861876e-08 -5.169843442499786e-07 1.193365443648704 94.98116449261825 1.3374012483580464 170.36001463242056 5.466522720457827e-07 -4.1375847283565024e-07 9.381565905697721 1.7515710336838721e-06 -14.601897675127226 12.748554518260022 0.0 0.0 1.7890620083232284e-15 -117.60598250281771 56.70141499084643 68.48771005796883 -1.7689693617405912e-06 -2.2981703900733126e-06 -22.95416001865463 -179.99999334736916 -68.45823279829384 133.718431780969 -2.782985346280577e-15 -6.3611093629270335e-15 -3.1805546814635168e-15 27.319365477871337 18.78430986157503 -82.7838482447314 7.321054767531875 -5.213952904933266 8.880490062324904 138.77232575707004 -39.25951425506936 -168.25693586799085 1.5902773407317582e-15 0.0 0.0 -23.297267607236392 20.003115721827797 72.11647798915678 -3.2273044045126555 -3.458353620922397 -4.58774772911138 -122.96834487817644 -13.79115043244253 -179.0199833784889 3.1805546814635164e-15 -6.361109362927033e-15 1.7655625192200634e-31
0.6039999723434448 -0.03099999949336052 1.878999948501587 0.4814595754673181 8.129856297819805 -176.65540680986484 -0.2937610937153252 -4.277251858664685 0.08209565560422878 8.764892429722903e-08 4.1350080934151565e-07 1.1036738790307943 95.66357088099308 -1.46410338412906 169.41748133328727 -1.3321534802295287e-06 -1.3782933864872889e-06 10.418774385784934 3.6423188772915983e-07 -8.898625212419205 11.148839495491714 0.0 0.0 3.180554681463516e-15 -115.80094521425325 55.53396149721411 64.89700015802849 -3.930432519875538e-07 -6.742917777806249e-07 -23.291511894135798 -179.99999999871318 -69.65395881216537 132.56538405152094 1.5902773407317584e-15 -4.4139062980501586e-32 -3.1805546814635168e-15 27.640105099871175 20.52690521475969 -83.5066786198826 7.580437742167812 -5.5343312677562775 9.344842443842408 141.3495573330832 -40.90448523792667 -166.2265583042561 3.975693351829396e-15 6.3611093629270335e-15 -2.2069531490250793e-31 -23.292245340244065 21.238396138687296 72.71648801787899 -2.7851531762481083 -2.6318152721305377 -3.4559923716284735 -118.23055233022058 -12.442646230796594 -178.02437266826743 -3.1805546814635164e-15 6.3611093629270335e-15 -6.3611093629270335e-15
0.6039999723434448 -0.03200000151991844 1.875 0.962851268618425 9.07026269200736 -175.52939929849458 0.422839048233323 -4.432813670697737 0.08610315141863469 -2.139105204998263e-08 -8.384857262069588e-07 0.37170112872718064 95.9812963181796 -0.5955636969790549 169.42053066983863 -2.2027394705967338e-06 1.6673568326009028e-06 9.61145246673411 3.328895461515062e-06 5.880900740531914 11.19965280520569 6.3611093629270335e-15 -1.5902773407317584e-15 8.827812596100317e-32 -116.62967666649804 55.62925432722079 64.5277798652101 1.1890003649601373e-06 -6.510361742857681e-06 -24.225190758059636 -179.9999989724323 -68.10655329148126 133.44665314010106 -2.385416011097638e-15 6.3611093629270335e-15 6.3611093629270335e-15 28.781086562130042 21.02705785043816 -84.7289900508337 7.630420485542045 -5.361679437442938 9.050227874502038 138.54542893330685 -40.639194077104 -168.24216776020745 -3.975693351829396e-15 -6.361109362927032e-15 -6.361109362927032e-15 -22.390971547021458 22.371574724793273 72.37813125552925 -2.2532236600579303 -2.0213218062064193 -2.535264445595574 -115.21893213149114 -12.26273651382195 -177.1108236437408 -3.1805546814635176e-15 -1.7655625192200634e-31 6.361109362927035e-15
0.6060000061988831 -0.032999999821186066 1.871999979019165 1.9091563864148378 8.992256429885726 -175.55876480849295 1.2489771341345361 -5.659858333118906 0.17617567167818993 -8.417555786676492e-08 -1.867053856530781e-06 0.32198023318575764 96.10628626619355 -0.17118998741218755 169.12852108961528 6.975621182023036e-06 -3.209192969732705e-06 8.896758977950668 -5.481428802625873e-06 1.6536163233606724 12.133728524695075 0.0 0.0 0.0 -117.93460036612022 55.50350453422596 65.06762504914938 3.0498352123734575e-06 7.102987195012638e-07 -24.7488257351801 -179.99999449340797 -68.3112550264727 132.17900884957746 -7.951386703658791e-16 6.361109362927033e-15 4.4139062980501586e-32 30.18309130313153 21.217683081866962 -86.3613629584015 7.743828104946742 -5.444933768965738 8.845058832279854 137.98840332574858 -39.89565344612471 -169.44903309023775 1.5902773407317584e-15 6.3611093629270335e-15 -8.827812596100317e-32 -21.118065337421534 22.158116613790686 71.06368482004305 -1.8264502650718948 -1.7127455731224812 -2.034948564731057 -114.9920080133723 -13.74277008561998 -176.33023774481467 3.1805546814635176e-15 0.0 0.0
0.6069999933242798 -0.03400000184774399 1.8669999837875366 2.405968176103151 10.929680657901036 -174.7289430712193 1.5407601005406166 -4.854687822331554 0.17427180294729175 -2.3222650533176452e-08 3.3654963777276614e-07 -0.0999783049152742 96.5136374992336 -1.0861567933655096 168.36388656568653 -7.556941946528351e-07 -2.438932138542052e-06 9.330856670439301 4.0007530388952435e-06 2.37602176780551 10.090861150513991 0.0 -3.1805546814635168e-15 0.0 -117.723647523774 55.12677975171402 64.6883884446466 4.4097767786070677e-07 4.743618013480821e-06 -24.88165599538119 179.99999990142678 -68.937401262643 131.79092271098523 5.9635400277440935e-15 -1.6552148617688094e-31 -3.1805546814635168e-15 32.02101529558344 22.73409549663543 -89.17673751496564 8.014295008666483 -5.352523091804587 8.855638249814339 136.79237071184252 -41.55247315958837 -169.59937399677486 -7.951386703658792e-15 0.0 0.0 -20.431120230242986 25.11017214702119 71.13956233630465 -2.4242183608776067 -2.2046460509170056 -2.548138374452822 -117.79569199712633 -13.835785932800981 -176.81630356361185 6.3611093629270335e-15 -6.3611093629270335e-15 3.531125038440127e-31
0.609000027179718 -0.035999998450279236 1.8639999628067017 2.9108583601398306 11.482146498852176 -175.13014788177233 1.6807444677701797 -5.172210638111469 0.19068038294415673 7.822165447576086e-08 5.330930787657682e-07 0.3726759514479946 96.70793753199764 -0.288908216812045 168.0968251613019 4.427642885937909e-06 -2.704150086322547e-06 9.371144016733819 -6.466808757977288e-07 -10.200412345255966 9.83765461589226 0.0 0.0 -7.951386703658792e-16 -117.5874235262844 54.81824796166109 64.75995981580898 -4.3295246614478924e-07 -4.457834870912673e-06 -25.374235053266652 -179.99999211047006 -65.17437675381352 131.4560371777314 -7.951386703658792e-16 4.4139062980501586e-32 -6.3611093629270335e-15 33.422188835589836 23.761414423213463 -91.25846879521437 8.47780934310457 -5.276061275800802 8.484903788710977 136.81420399053945 -43.476728951971815 -169.71565842682264 -1.9878466759146984e-15 0.0 0.0 -19.868077472779436 26.501539243876415 71.0899359986404 -3.051925505938042 -3.084923436002537 -3.442555919446186 -120.99853939653975 -15.067297405280815 -177.13148676699015 6.361109362927033e-15 -6.3611093629270335e-15 -1.2722218725854067e-14
0.609000027179718 -0.03700000047683716 1.8609999418258667 2.9108582975756345 12.410418287981823 -174.8259930317234 1.1506216781356615 -4.905191675840369 0.0890227818712765 -3.6534225231633114e-08 2.900387916219303e-08 0.422762668567036 96.63342178340673 -0.6583468523237328 167.99539774088947 3.8383594451278305e-06 4.244876451783823e-07 9.194246052412575 -1.0113077405138225e-06 -22.850049403720853 9.20508435955916 0.0 0.0 -7.951386703658792e-16 -119.13097354749883 55.6637381762216 67.00960069263235 1.3936182458876927e-06 -5.17727079555836e-06 -25.972413485129405 179.9999953849873 -63.67727909105766 131.31074686477626 6.3611093629270335e-15 6.3611093629270335e-15 -3.531125038440127e-31 34.18587976521786 24.62815361029632 -91.7420781934717 8.387949384143159 -5.302776639873896 8.361744441944303 134.98450884244076 -45.66988260969009 -171.03541102395945 9.14409470920761e-15 6.3611093629270335e-15 -5.075992242757682e-31 -19.917553805648456 28.503216374359763 72.24084780860026 -3.3525974344345113 -3.9003843471504576 -4.2009248349643515 -125.67833688948431 -17.12197554834217 -177.85005842815798 -3.180554681463516e-15 6.361109362927033e-15 -6.361109362927033e-15
0.6079999804496765 -0.03700000047683716 1.8589999675750732 2.4263335129184354 12.877047169275595 -174.50834455961862 0.0925069054732074 -5.2583895143989805 0.10938146178844592 5.8302906945551335e-08 -4.6319476998405175e-07 0.8495207256189358 96.7079448389327 -2.6822972258217295 167.77252895771176 3.516164544206834e-06 -2.932956038297675e-06 9.241801676597092 -1.9366423023700566e-06 -43.028483783796645 8.080862867606816 0.0 0.0 -3.1805546814635168e-15 -120.6364612042955 56.54637394498636 69.47971015318781 -1.0209918888272506e-06 -1.944079164514268e-06 -26.020025238689737 179.99999534706723 -64.2877204728836 133.77206609291244 0.0 0.0 0.0 34.17808860640496 24.908671759469943 -93.40682870911918 8.402796490125723 -5.085153634784043 8.076286512741927 133.22315645829292 -44.75050143599074 -172.2984950193338 -1.590277340731758e-15 8.827812596100317e-32 -6.361109362927032e-15 -20.177507510658337 29.47773975900831 71.88476896974136 -3.657985277383745 -4.3584058659250475 -4.6310295643821195 -127.61013848533403 -16.93980070957719 -178.3226654915421 0.0 0.0 -6.3611093629270335e-15
